HIERARCHY
ROOT Hips
{
	OFFSET 0.00000 0.00000 0.00000
	CHANNELS 6 Xposition Yposition Zposition Zrotation Yrotation Xrotation 
	JOINT LHipJoint
	{
		OFFSET 0 0 0
		CHANNELS 3 Zrotation Yrotation Xrotation
		JOINT LeftHip
		{
			OFFSET 1.27966 -1.91611 0.81506
			CHANNELS 3 Zrotation Yrotation Xrotation
			JOINT LeftKnee
			{
				OFFSET 2.49511 -6.85528 0.00000
				CHANNELS 3 Zrotation Yrotation Xrotation
				JOINT LeftAnkle
				{
					OFFSET 2.67286 -7.34045 0.00000
					CHANNELS 3 Zrotation Yrotation Xrotation
					JOINT LeftToe
					{
						OFFSET 0.22740 -0.62477 2.32102
						CHANNELS 3 Zrotation Yrotation Xrotation
						End Site
						{
							OFFSET 0.00000 -0.00000 1.20480
						}
					}
				}
			}
		}
	}
	JOINT RHipJoint
	{
		OFFSET 0 0 0
		CHANNELS 3 Zrotation Yrotation Xrotation
		JOINT RightHip
		{
			OFFSET -1.09666 -1.91611 0.81505
			CHANNELS 3 Zrotation Yrotation Xrotation
			JOINT RightKnee
			{
				OFFSET -2.51373 -6.90642 0.00000
				CHANNELS 3 Zrotation Yrotation Xrotation
				JOINT RightAnkle
				{
					OFFSET -2.70173 -7.42295 0.00000
					CHANNELS 3 Zrotation Yrotation Xrotation
					JOINT RightToe
					{
						OFFSET -0.22214 -0.61032 2.18267
						CHANNELS 3 Zrotation Yrotation Xrotation
						End Site
						{
							OFFSET -0.00000 -0.00000 1.13683
						}
					}
				}
			}
		}
	}
	JOINT lowerback
	{
		OFFSET 0 0 0
		CHANNELS 3 Zrotation Yrotation Xrotation
		JOINT Chest
		{
			OFFSET -0.00990 2.16804 -0.08389
			CHANNELS 3 Zrotation Yrotation Xrotation
			JOINT Chest2
			{
				OFFSET 0.06407 2.15456 0.07285
				CHANNELS 3 Zrotation Yrotation Xrotation
				JOINT lowerneck
				{
					OFFSET 0 0 0
					CHANNELS 3 Zrotation Yrotation Xrotation
					JOINT Neck
					{
						OFFSET -0.16931 1.61602 0.24462
						CHANNELS 3 Zrotation Yrotation Xrotation
						JOINT Head
						{
							OFFSET 0.21556 1.63376 -0.33896
							CHANNELS 3 Zrotation Yrotation Xrotation
							End Site
							{
								OFFSET 0.08444 1.69244 -0.14900
							}
						}
					}
				}
				JOINT LeftCollar
				{
					OFFSET 0 0 0
					CHANNELS 3 Zrotation Yrotation Xrotation
					JOINT LeftShoulder
					{
						OFFSET 2.89000 1.40150 -0.54392
CHANNELS 3 Zrotation Xrotation Yrotation
						JOINT LeftElbow
						{
OFFSET 0 -5.107550 0.000000
CHANNELS 3 Zrotation Xrotation Yrotation
							JOINT LeftWrist
							{
OFFSET 0 -3.362530 0.000000
CHANNELS 3 Zrotation Xrotation Yrotation
								JOINT lhand
								{
									OFFSET 0 0 0
CHANNELS 3 Zrotation Xrotation Yrotation
									JOINT LFingers
									{
OFFSET 0 -0.619090 0.000000
CHANNELS 3 Zrotation Xrotation Yrotation
										End Site
										{
OFFSET 0 -0.499120 0.000000
										}
									}
								}
								JOINT LThumb
								{
OFFSET 0 0.000000 0.000000
CHANNELS 3 Zrotation Xrotation Yrotation
									End Site
									{
OFFSET 0 -0.506750 0.506750
									}
								}
							}
						}
					}
				}
				JOINT RightCollar
				{
					OFFSET 0 0 0
					CHANNELS 3 Zrotation Yrotation Xrotation
					JOINT RightShoulder
					{
						OFFSET -2.65771 1.70968 -0.54312
CHANNELS 3 Zrotation Xrotation Yrotation
						JOINT RightElbow
						{
OFFSET 0 -5.273870 0.000000
CHANNELS 3 Zrotation Xrotation Yrotation
							JOINT RightWrist
							{
OFFSET 0 -3.401440 0.000000
CHANNELS 3 Zrotation Xrotation Yrotation
								JOINT rhand
								{
									OFFSET 0 0 0
CHANNELS 3 Zrotation Xrotation Yrotation
									JOINT RFingers
									{
OFFSET 0 -0.742820 0.000000
CHANNELS 3 Zrotation Xrotation Yrotation
										End Site
										{
OFFSET 0 -0.598880 0.000000
										}
									}
								}
								JOINT RThumb
								{
OFFSET 0 0.000000 0.000000
CHANNELS 3 Zrotation Xrotation Yrotation
									End Site
									{
OFFSET 0 -0.608030 0.608030
									}
								}
							}
						}
					}
				}
			}
		}
	}
}
MOTION
Frames: 9
Frame Time: 0.008333333333333333
0.801125 18.380970 -2.716529 -4.796603 5.418674 -1.936552 0.000000 0.000000 0.000000 -14.677370 0.726658 0.534058 0.768499 5.597823 15.621797 0.114407 -9.838336 -8.691913 0.393567 -4.027935 -11.155336 0.000000 0.000000 0.000000 24.697059 -6.489743 -0.637115 -0.634490 -5.096393 14.183765 -0.319221 -4.745461 -13.485528 -0.554077 4.767467 -13.246631 -1.412340 2.868683 5.663870 1.119055 3.773822 -1.026785 1.589624 1.923255 -4.403669 -20.571569 -9.646204 -14.457033 17.460703 -12.751446 20.281052 7.953451 -5.727524 11.550888 0.000000 0.000000 0.000000 -1.032830 13.692993 -25.696957 18.779898 -29.144314 4.923168 22.457625 2.785540 -31.041714 0.000000 0.000000 0.000000 -7.125000 0.000000 0.000000 -11.155217 62.715265 4.833200 0.000000 0.000000 0.000000 -41.001688 -54.543502 34.618729 -18.612865 -28.934647 -4.842163 -23.907292 19.208376 -7.391461 0.000000 0.000000 0.000000 7.125000 0.000000 0.000000 2.111534 21.904641 1.171521
0.722224 18.389885 -2.703085 -5.435406 5.811433 -1.178453 0.000000 0.000000 0.000000 -14.072181 0.247792 -0.730349 0.842443 5.854361 16.362557 0.271852 -7.279951 -9.893216 0.579967 -4.876470 -13.556627 0.000000 0.000000 0.000000 25.800065 -3.738817 0.133465 -0.533444 -4.680219 12.998668 -0.248482 -5.712854 -13.233632 -0.376762 3.941951 -10.913506 0.530228 3.296689 6.937026 0.791049 4.506631 -2.380948 -0.028719 2.214681 -6.397535 -19.808949 -10.345749 -12.827752 17.677531 -14.333640 20.150754 7.638862 -6.446878 11.497498 0.000000 0.000000 0.000000 0.421622 15.052402 -25.709342 19.324358 -29.819604 5.191142 20.111722 2.341745 -33.151107 0.000000 0.000000 0.000000 -7.125000 0.000000 0.000000 -15.534644 64.155117 7.303498 0.000000 0.000000 0.000000 -53.241864 -69.973063 28.368767 -22.490141 -33.526443 -6.854617 -26.293673 14.071386 -7.334458 0.000000 0.000000 0.000000 7.125000 0.000000 0.000000 0.369815 21.809586 0.205903
0.706170 18.394951 -2.553436 -5.289962 7.471731 -0.881166 0.000000 0.000000 0.000000 -14.230004 -0.818010 -0.537835 0.875729 5.966174 16.686236 0.271078 -7.584436 -9.974812 0.464341 -4.370803 -12.122338 0.000000 0.000000 0.000000 25.736394 -4.032784 0.805148 -0.480489 -4.445157 12.332481 -0.289166 -5.741255 -13.882593 -0.242408 3.167870 -8.746385 1.345629 2.932045 7.098831 0.649075 4.094385 -2.562308 -0.593701 1.972161 -6.613478 -19.281530 -10.451011 -11.644781 17.399563 -14.628022 19.317575 7.382073 -6.628735 10.947617 0.000000 0.000000 0.000000 -1.231264 14.728431 -20.957145 18.685581 -29.025495 4.877672 19.130718 0.910868 -27.576018 0.000000 0.000000 0.000000 -7.125000 0.000000 0.000000 -12.681339 58.462177 4.217916 0.000000 0.000000 0.000000 -114.156959 -68.920874 -37.219137 -22.318615 -33.335082 -6.760145 -29.670969 12.763929 -8.108378 0.000000 0.000000 0.000000 7.125000 0.000000 0.000000 -2.028760 20.670149 -1.182854
0.747062 18.382502 -2.431468 -4.781052 6.436777 -1.253028 0.000000 0.000000 0.000000 -14.848152 0.038991 0.650460 0.801456 5.713718 15.956011 0.268297 -7.746890 -9.987463 0.560291 -4.794495 -13.323409 0.000000 0.000000 0.000000 24.946150 -6.257305 0.778487 -0.491348 -4.494340 12.471740 -0.312024 -5.133838 -13.696629 -0.358475 3.846544 -10.645396 0.736578 2.188460 6.727060 0.647896 3.028277 -2.089263 -0.094446 1.479192 -5.947038 -18.334067 -9.755595 -11.775071 16.359981 -13.597522 19.794032 7.022849 -6.173702 10.751156 0.000000 0.000000 0.000000 -2.228842 14.930496 -22.124178 18.466138 -28.749820 4.771382 21.389052 3.334874 -31.252025 0.000000 0.000000 0.000000 -7.125000 0.000000 0.000000 -12.548217 62.646173 5.426973 0.000000 0.000000 0.000000 -108.766574 -56.966558 -39.123047 -22.074456 -33.061007 -6.626415 -28.382924 16.271634 -6.494223 0.000000 0.000000 0.000000 7.125000 0.000000 0.000000 -1.198098 22.607667 -0.645179
0.698654 18.378152 -2.437187 -5.100561 6.694802 -1.460544 0.000000 0.000000 0.000000 -14.053993 -0.356010 0.993228 0.793232 5.685098 15.873413 0.179227 -8.910401 -9.168197 0.403169 -4.076620 -11.292398 0.000000 0.000000 0.000000 25.594006 -6.978538 0.287138 -0.534000 -4.682313 13.004739 -0.312738 -5.575151 -14.083759 -0.530787 4.668345 -12.964963 -0.664435 1.543495 7.159851 1.233509 2.067382 -1.491295 1.409936 1.064674 -5.641264 -19.048372 -9.637179 -13.074277 16.191909 -13.156374 21.090682 7.172732 -5.980577 11.436914 0.000000 0.000000 0.000000 -1.868145 14.329620 -26.248124 20.760835 -31.547873 5.924455 22.560664 1.846406 -30.940308 0.000000 0.000000 0.000000 -7.125000 0.000000 0.000000 -10.980363 62.639774 4.743355 0.000000 0.000000 0.000000 -77.792251 -46.937269 -17.231472 -20.583197 -31.338570 -5.831629 -28.439667 17.824534 -4.821280 0.000000 0.000000 0.000000 7.125000 0.000000 0.000000 -1.324565 24.500268 -0.655915
0.655707 18.371276 -2.434902 -4.442365 2.631217 -1.413322 0.000000 0.000000 0.000000 -14.774282 1.467399 1.710921 0.712864 5.395720 15.040743 0.292861 -6.413058 -9.972756 0.478880 -4.437512 -12.310862 0.000000 0.000000 0.000000 24.974427 -4.480601 0.463531 -0.645462 -5.139528 14.306870 -0.382080 -4.157036 -13.953825 -0.518112 4.612603 -12.807103 -0.960200 2.305475 6.615782 1.738781 3.077823 -0.834940 2.012911 1.574368 -4.723312 -20.354922 -9.243463 -13.882305 15.908417 -11.997567 20.901878 7.466634 -5.547038 11.354732 0.000000 0.000000 0.000000 -1.695692 13.973967 -28.012192 20.127185 -30.795312 5.596355 21.954573 0.775910 -27.606029 0.000000 0.000000 0.000000 -7.125000 0.000000 0.000000 -9.627961 59.135515 3.345135 0.000000 0.000000 0.000000 -45.704121 -43.030853 20.092321 -21.157847 -32.012160 -6.133449 -26.200662 19.501947 -6.589798 0.000000 0.000000 0.000000 7.125000 0.000000 0.000000 0.407360 22.642899 0.219183
0.559620 18.363916 -2.519323 -3.580021 1.211157 -0.937191 0.000000 0.000000 0.000000 -15.716683 2.288696 0.935162 0.707807 5.377002 14.987080 0.381425 -4.154987 -10.982888 0.529478 -4.662802 -12.949401 0.000000 0.000000 0.000000 24.309584 -1.442163 -0.287630 -0.810161 -5.743921 16.043266 -0.452234 -2.757425 -14.011858 -0.387212 3.995578 -11.064237 -0.616613 2.943063 6.921482 1.761278 3.953713 -0.570741 1.739125 1.996971 -4.638026 -20.784617 -9.812901 -14.063118 16.639049 -12.754520 19.925623 7.641716 -5.836735 11.287524 0.000000 0.000000 0.000000 -1.844832 12.533959 -26.961895 18.728746 -29.079374 4.898730 19.857946 2.210357 -32.301271 0.000000 0.000000 0.000000 -7.125000 0.000000 0.000000 -15.101930 63.270261 6.775301 0.000000 0.000000 0.000000 -31.376245 -47.935463 39.788431 -24.237479 -35.413757 -7.844025 -28.083656 15.445179 -9.770607 0.000000 0.000000 0.000000 7.125000 0.000000 0.000000 -0.777158 18.936278 -0.482234
0.530004 18.376071 -2.513355 -3.638677 0.884695 -0.285945 0.000000 0.000000 0.000000 -15.777582 1.495062 0.404211 0.728376 5.453150 15.205638 0.409386 -2.993842 -11.428197 0.517592 -4.611026 -12.802464 0.000000 0.000000 0.000000 24.352767 -0.661677 -0.484964 -0.772772 -5.613075 15.665724 -0.455340 -1.901135 -13.580477 -0.317140 3.620324 -10.010766 0.667073 2.243342 7.418010 1.527799 3.147319 -1.622753 0.826612 1.556973 -5.905177 -20.065485 -9.128926 -12.930491 16.358767 -12.222858 20.905840 7.583312 -5.629369 11.229050 0.000000 0.000000 0.000000 -2.012922 14.967986 -24.855623 19.184649 -29.647452 5.121892 20.105829 1.651450 -30.112670 0.000000 0.000000 0.000000 -7.125000 0.000000 0.000000 -13.195467 61.198519 5.258118 0.000000 0.000000 0.000000 -51.559505 -58.453306 17.896085 -27.432503 -38.588484 -9.767705 -29.391626 13.851069 -8.971706 0.000000 0.000000 0.000000 7.125000 0.000000 0.000000 -1.764475 19.711921 -1.066338
0.537210 18.376674 -2.466832 -4.168136 1.293173 -0.228143 0.000000 0.000000 0.000000 -15.042103 1.413064 0.427258 0.722140 5.430102 15.139441 0.392979 -4.134842 -11.148126 0.574811 -4.855177 -13.496041 0.000000 0.000000 0.000000 24.958285 -2.312848 -0.625498 -0.705234 -5.367426 14.959474 -0.440934 -2.237631 -13.560021 -0.358237 3.844761 -10.640362 1.191993 1.496656 7.513336 1.790180 2.212374 -1.418141 0.922096 1.083354 -5.722405 -19.050506 -8.792627 -12.600764 16.045300 -11.936896 20.761903 7.337256 -5.462415 10.948172 0.000000 0.000000 0.000000 -3.168684 14.174727 -23.777487 18.566623 -28.876648 4.819754 19.590854 1.897213 -29.861818 0.000000 0.000000 0.000000 -7.125000 0.000000 0.000000 -13.598678 60.825555 5.302090 0.000000 0.000000 0.000000 -82.822879 -48.111022 -22.280234 -27.564401 -38.711894 -9.850126 -32.463782 14.314895 -7.452576 0.000000 0.000000 0.000000 7.125000 0.000000 0.000000 -4.092110 21.176126 -2.343386
